<svg width="200" height="155" viewBox="0 0 200 155" fill="none" xmlns="http://www.w3.org/2000/svg">
  <path fill-rule="evenodd" clip-rule="evenodd" d="M108.277 0C89.9881 0 73.1787 6.31532 59.9059 16.8814H38.4546C35.6676 16.8814 33.3874 19.1603 33.3874 21.9458C33.3874 24.7312 35.6676 27.0102 38.4546 27.0102H49.3718H52.5709C55.3579 27.0102 57.6382 29.2892 57.6382 32.0746C57.6382 33.4656 57.0673 34.7351 56.1484 35.6501C55.2329 36.5684 53.9627 37.139 52.5709 37.139H45.7457H41.977H23.5907C20.8037 37.139 18.5234 39.418 18.5234 42.2034C18.5234 44.9888 20.8037 47.2678 23.5907 47.2678H36.7534C32.78 56.6005 30.5791 66.8694 30.5791 77.6543C30.5791 81.5674 30.8696 85.4129 31.427 89.1707C31.6601 90.7407 31.9405 92.2971 32.2682 93.8367C41.8284 92.3748 51.9696 91.1999 62.5568 90.3423L63.354 91.0682L64.104 90.2207C76.8227 89.2315 90.1732 88.7048 103.943 88.7048C133.198 88.7048 160.574 91.0817 183.981 95.2142C184.883 91.3045 185.491 87.2834 185.779 83.1711C185.91 81.3479 185.975 79.5078 185.975 77.6543C185.975 34.7655 151.19 0 108.277 0Z" fill="#F1F2F7"/>
  <path fill-rule="evenodd" clip-rule="evenodd" d="M8.20385 36.9043H5.13297C2.30983 36.9043 0 39.2293 0 42.071C0 44.9126 2.30983 47.2376 5.13297 47.2376H8.20385C11.027 47.2376 13.3368 44.9126 13.3368 42.071C13.3368 39.2293 11.027 36.9043 8.20385 36.9043Z" fill="#F1F2F7"/>
  <mask id="mask0_218_496" style="mask-type:luminance" maskUnits="userSpaceOnUse" x="32" y="88" width="168" height="67">
    <path fill-rule="evenodd" clip-rule="evenodd" d="M199.999 88.8164V155H116.081H32.1621V88.8164H199.999Z" fill="white"/>
  </mask>
  <g mask="url(#mask0_218_496)">
    <path fill-rule="evenodd" clip-rule="evenodd" d="M200 114.405C200 117.173 197.72 119.437 194.933 119.437H162.575C161.183 119.437 159.914 120.004 158.998 120.917C158.08 121.826 157.509 123.087 157.509 124.47C157.509 127.238 159.788 129.502 162.575 129.502H168.587C169.978 129.502 171.248 130.069 172.163 130.982C173.082 131.891 173.653 133.152 173.653 134.535C173.653 137.303 171.373 139.567 168.587 139.567H154.763C141.777 149.256 125.64 155 108.152 155C70.8024 155 39.6092 128.814 32.1621 93.916C41.72 92.4633 51.8588 91.2957 62.4434 90.4436L63.2401 91.1649L63.9903 90.3228C76.7056 89.3398 90.0533 88.8164 103.819 88.8164C133.067 88.8164 160.437 91.1783 183.839 95.2848C182.701 100.176 181.093 104.887 179.067 109.372H194.933C196.328 109.372 197.591 109.939 198.51 110.852C199.429 111.761 200 113.023 200 114.405Z" fill="#E8EBF2"/>
  </g>
  <path fill-rule="evenodd" clip-rule="evenodd" d="M185.234 82.9421C184.947 87.1328 184.34 91.2306 183.439 95.2148C160.063 91.0035 132.723 88.5817 103.507 88.5817C89.7554 88.5817 76.4226 89.1181 63.7207 90.1262L72.5294 79.9591L86.2323 88.8669L104.782 83.7648L136.692 88.5817L150.546 83.7648L154.054 88.5817L162.425 82.392L170.248 89.5344L182.586 79.7148L185.234 82.9421Z" fill="#E0E2EE"/>
  <path fill-rule="evenodd" clip-rule="evenodd" d="M63.7201 90.0479L63.0015 90.7859L62.2383 90.1537C62.7298 90.1155 63.2251 90.0802 63.7201 90.0479Z" fill="#F1F2F7"/>
  <path fill-rule="evenodd" clip-rule="evenodd" d="M62.2384 90.2378C51.6548 91.0968 41.517 92.2736 31.96 93.7379C31.6324 92.1958 31.3522 90.6369 31.1191 89.0644L47.5007 76.7617L62.2384 90.2378Z" fill="#E0E2EE"/>
  <path fill-rule="evenodd" clip-rule="evenodd" d="M183.753 139.5C180.9 139.5 178.566 137.175 178.566 134.334C178.566 131.492 180.9 129.167 183.753 129.167C186.606 129.167 188.939 131.492 188.939 134.334C188.939 137.175 186.606 139.5 183.753 139.5Z" fill="#E1E3EF"/>
  <path fill-rule="evenodd" clip-rule="evenodd" d="M138.332 120.665C138.332 122.092 125.394 123.249 109.435 123.249C93.4762 123.249 80.5391 122.092 80.5391 120.665C80.5391 119.239 93.4762 118.082 109.435 118.082C125.394 118.082 138.332 119.239 138.332 120.665Z" fill="#D8DBEA"/>
  <rect x="84.9844" y="36.9053" width="53.3472" height="64.9524" rx="4" fill="#D8DBEA"/>
  <rect x="80.5391" y="40.5957" width="53.3472" height="64.9524" rx="4" fill="white"/>
  <path fill-rule="evenodd" clip-rule="evenodd" d="M123.321 55.3577H91.1029C90.1828 55.3577 89.4297 54.6935 89.4297 53.882C89.4297 53.0695 90.1828 52.4053 91.1029 52.4053H123.321C124.241 52.4053 124.995 53.0695 124.995 53.882C124.995 54.6935 124.241 55.3577 123.321 55.3577ZM123.321 64.2148H91.1029C90.1828 64.2148 89.4297 63.5506 89.4297 62.7392C89.4297 61.9266 90.1828 61.2624 91.1029 61.2624H123.321C124.241 61.2624 124.995 61.9266 124.995 62.7392C124.995 63.5506 124.241 64.2148 123.321 64.2148ZM91.1029 73.0721H123.321C124.241 73.0721 124.995 72.4079 124.995 71.5964C124.995 70.7839 124.241 70.1197 123.321 70.1197H91.1029C90.1828 70.1197 89.4297 70.7839 89.4297 71.5964C89.4297 72.4079 90.1828 73.0721 91.1029 73.0721ZM123.321 81.9291H91.1029C90.1828 81.9291 89.4297 81.2649 89.4297 80.4535C89.4297 79.6409 90.1828 78.9767 91.1029 78.9767H123.321C124.241 78.9767 124.995 79.6409 124.995 80.4535C124.995 81.2649 124.241 81.9291 123.321 81.9291ZM90.9111 90.7864H105.731C106.545 90.7864 107.212 90.1222 107.212 89.3108C107.212 88.4982 106.545 87.834 105.731 87.834H90.9111C90.0965 87.834 89.4297 88.4982 89.4297 89.3108C89.4297 90.1222 90.0965 90.7864 90.9111 90.7864Z" fill="#D8DBEA"/>
  <path fill-rule="evenodd" clip-rule="evenodd" d="M97.6337 96.7366C91.5184 102.83 81.608 102.828 75.4915 96.7366C69.383 90.6514 69.383 80.7779 75.4995 74.686C81.608 68.6009 91.5184 68.6009 97.6269 74.686C103.742 80.7779 103.742 90.6514 97.6337 96.7366ZM100.772 71.556C92.9222 63.7365 80.2022 63.7365 72.3526 71.556C64.5042 79.3744 64.4974 92.0536 72.3458 99.8731C79.4899 106.988 90.6873 107.629 98.563 101.788C99.3323 101.216 100.073 100.576 100.78 99.8731C101.485 99.1692 102.128 98.4312 102.701 97.6649C108.564 89.8182 107.915 78.6716 100.772 71.556Z" fill="#BEC0D6"/>
  <path fill-rule="evenodd" clip-rule="evenodd" d="M103.134 97.0518L109.083 102.978L104.86 107.184L98.9121 101.258C99.6971 100.675 100.452 100.021 101.174 99.3039C101.894 98.5867 102.55 97.8337 103.134 97.0518Z" fill="#D8DBEA"/>
  <path fill-rule="evenodd" clip-rule="evenodd" d="M93.5835 72.5895L72.9013 93.1915C72.1224 91.8009 71.5928 90.3253 71.3047 88.8001L89.175 70.998C90.705 71.296 92.1875 71.8225 93.5835 72.5895Z" fill="white" fill-opacity="0.5"/>
  <path fill-rule="evenodd" clip-rule="evenodd" d="M100.364 77.4871L78.0046 98.4993C77.2039 97.9742 76.4417 97.3832 75.731 96.7152C75.3651 96.3714 75.0191 96.0188 74.6953 95.6463L97.3275 74.376C97.7237 74.6814 98.1001 75.0066 98.4648 75.3504C99.1756 76.0183 99.815 76.7335 100.364 77.4871Z" fill="white" fill-opacity="0.5"/>
  <path fill-rule="evenodd" clip-rule="evenodd" d="M116.825 114.699L116.628 114.895C115.327 116.192 113.196 116.192 111.894 114.895L100.365 103.41L105.295 98.499L116.825 109.984C118.126 111.281 118.126 113.403 116.825 114.699Z" fill="url(#paint0_linear_218_496)"/>
  <path fill-rule="evenodd" clip-rule="evenodd" d="M105.693 98.9006L100.768 103.806L99.8809 102.922L104.805 98.0166L105.693 98.9006Z" fill="#EF545F"/>
  <defs>
    <linearGradient id="paint0_linear_218_496" x1="109.325" y1="89.5734" x2="91.4741" y2="107.493" gradientUnits="userSpaceOnUse">
      <stop stop-color="#FF8960"/>
      <stop offset="1" stop-color="#FF62A5"/>
    </linearGradient>
  </defs>
</svg>
