<svg width="200" height="156" viewBox="0 0 200 156" fill="none" xmlns="http://www.w3.org/2000/svg">
  <path fill-rule="evenodd" clip-rule="evenodd" d="M108.275 0C89.986 0 73.177 6.34 59.904 16.946H38.453c-2.787 0-5.068 2.288-5.068 5.084s2.28 5.084 5.068 5.084h14.116c2.787 0 5.067 2.288 5.067 5.084a5.07 5.07 0 0 1-1.49 3.59 5.04 5.04 0 0 1-3.577 1.494h-28.98c-2.787 0-5.067 2.288-5.067 5.084s2.28 5.084 5.067 5.084H36.75c-3.973 9.368-6.174 19.676-6.174 30.503 0 3.928.29 7.788.848 11.56q.35 2.366.841 4.685c9.56-1.468 19.702-2.647 30.289-3.508l.797.728.75-.85c12.719-.993 26.07-1.522 39.839-1.522 29.254 0 56.631 2.386 80.038 6.534a78 78 0 0 0 1.797-12.09q.197-2.745.196-5.537C185.972 34.899 151.187 0 108.275 0M8.204 37.047H5.133C2.31 37.047 0 39.38 0 42.233s2.31 5.187 5.133 5.187h3.07c2.824 0 5.134-2.334 5.134-5.187 0-2.852-2.31-5.186-5.133-5.186" fill="#F1F2F7"/>
  <mask id="a" style="mask-type:luminance" maskUnits="userSpaceOnUse" x="32" y="89" width="169" height="67">
    <path fill-rule="evenodd" clip-rule="evenodd" d="M200.001 89.158v66.438H32.164V89.158z" fill="#fff"/>
  </mask>
  <g mask="url(#a)">
    <path fill-rule="evenodd" clip-rule="evenodd" d="M200.001 114.845c0 2.778-2.28 5.052-5.066 5.052h-32.359a5.05 5.05 0 0 0-3.576 1.485 5.03 5.03 0 0 0-1.49 3.567c0 2.778 2.28 5.051 5.066 5.051h6.013c1.391 0 2.661.57 3.576 1.486a5.02 5.02 0 0 1 1.49 3.566c0 2.779-2.28 5.052-5.066 5.052h-13.824c-12.986 9.726-29.123 15.492-46.611 15.492-37.35 0-68.543-26.286-75.99-61.319 9.558-1.458 19.697-2.63 30.281-3.485l.797.724.75-.846c12.715-.986 26.063-1.512 39.829-1.512 29.248 0 56.618 2.371 80.019 6.493a76.5 76.5 0 0 1-4.772 14.142h15.867c1.395 0 2.658.569 3.577 1.485a5.03 5.03 0 0 1 1.489 3.567" fill="#E8EBF2"/>
  </g>
  <path fill-rule="evenodd" clip-rule="evenodd" d="M185.234 83.26a81 81 0 0 1-1.795 12.32c-23.376-4.227-50.717-6.659-79.933-6.659-13.75 0-27.083.539-39.785 1.55l8.808-10.205 13.703 8.942 18.55-5.122 31.91 4.835 13.854-4.835 3.508 4.835 8.371-6.213 7.823 7.17 12.337-9.858z" fill="#E0E2EE"/>
  <path fill-rule="evenodd" clip-rule="evenodd" d="m63.72 90.394-.718.74-.764-.634q.739-.058 1.482-.106" fill="#F1F2F7"/>
  <path fill-rule="evenodd" clip-rule="evenodd" d="M62.238 90.585c-10.583.862-20.721 2.043-30.278 3.513a77 77 0 0 1-.84-4.691l16.38-12.35z" fill="#E0E2EE"/>
  <path fill-rule="evenodd" clip-rule="evenodd" d="M183.753 140.036c-2.853 0-5.187-2.334-5.187-5.186 0-2.853 2.334-5.187 5.187-5.187s5.186 2.334 5.186 5.187c0 2.852-2.333 5.186-5.186 5.186" fill="#E1E3EF"/>
  <path fill-rule="evenodd" clip-rule="evenodd" d="M141 121.5c0 1.381-14.999 2.5-33.5 2.5-18.502 0-33.5-1.119-33.5-2.5 0-1.38 14.998-2.5 33.5-2.5 18.501 0 33.5 1.12 33.5 2.5" fill="#D8DBEA"/>
  <rect x="71" y="47" width="74.998" height="58" rx="4" fill="#fff"/>
  <path d="M71 51a4 4 0 0 1 4-4h67a4 4 0 0 1 4 4v7H71z" fill="#BEC0D6"/>
  <path fill-rule="evenodd" clip-rule="evenodd" d="M85 53.5a1.5 1.5 0 1 1-3 0 1.5 1.5 0 0 1 3 0m-6 0a1.5 1.5 0 1 1-3 0 1.5 1.5 0 0 1 3 0M89.5 55a1.5 1.5 0 1 0 0-3 1.5 1.5 0 0 0 0 3" fill="#fff"/>
  <path fill-rule="evenodd" clip-rule="evenodd" d="M131.306 69H83.694C82.762 69 82 68.325 82 67.5s.762-1.5 1.694-1.5h47.612c.932 0 1.694.675 1.694 1.5s-.762 1.5-1.694 1.5m-15 9H83.694C82.762 78 82 77.325 82 76.5s.762-1.5 1.694-1.5h32.612c.932 0 1.694.675 1.694 1.5s-.762 1.5-1.694 1.5M83.333 88h23.334c.733 0 1.333-.675 1.333-1.5s-.6-1.5-1.333-1.5H83.333C82.6 85 82 85.675 82 86.5s.6 1.5 1.333 1.5" fill="#D8DBEA"/>
  <path d="M134 116c9.941 0 18-8.059 18-18s-8.059-18-18-18-18 8.059-18 18 8.059 18 18 18" fill="url(#b)"/>
  <path d="M140.364 106.485 134 100.121l-6.364 6.364-2.121-2.121L131.879 98l-6.364-6.364 2.121-2.122L134 95.878l6.364-6.364 2.121 2.122L136.121 98l6.364 6.364z" fill="#fff"/>
  <defs>
    <linearGradient id="b" x1="134" y1="62" x2="98" y2="98" gradientUnits="userSpaceOnUse">
      <stop stop-color="#FF8960"/>
      <stop offset="1" stop-color="#FF62A5"/>
    </linearGradient>
  </defs>
</svg>
