<svg width="200" height="155" viewBox="0 0 200 155" fill="none" xmlns="http://www.w3.org/2000/svg">
  <path fill-rule="evenodd" clip-rule="evenodd" d="M108.277 0C89.988 0 73.179 6.315 59.906 16.881H38.455c-2.787 0-5.068 2.28-5.068 5.065s2.28 5.064 5.068 5.064H52.57c2.787 0 5.067 2.28 5.067 5.065 0 1.39-.57 2.66-1.49 3.575a5.05 5.05 0 0 1-3.577 1.489H23.59c-2.787 0-5.068 2.279-5.068 5.064s2.28 5.065 5.068 5.065h13.162C32.78 56.6 30.58 66.869 30.58 77.654c0 3.913.29 7.759.848 11.517q.35 2.355.841 4.666c9.56-1.462 19.701-2.637 30.289-3.495l.797.726.75-.847c12.719-.99 26.07-1.516 39.838-1.516 29.255 0 56.632 2.377 80.039 6.51a77.6 77.6 0 0 0 1.797-12.044q.197-2.735.196-5.517C185.974 34.766 151.189 0 108.277 0M8.204 36.904H5.133C2.31 36.904 0 39.23 0 42.071s2.31 5.167 5.133 5.167h3.07c2.824 0 5.134-2.325 5.134-5.167s-2.31-5.167-5.133-5.167" fill="#F1F2F7"/>
  <mask id="a" style="mask-type:luminance" maskUnits="userSpaceOnUse" x="32" y="88" width="169" height="67">
    <path fill-rule="evenodd" clip-rule="evenodd" d="M200.001 88.816V155H32.164V88.816z" fill="#fff"/>
  </mask>
  <g mask="url(#a)">
    <path fill-rule="evenodd" clip-rule="evenodd" d="M200.001 114.405c0 2.768-2.28 5.032-5.066 5.032h-32.359a5.06 5.06 0 0 0-3.576 1.48 5 5 0 0 0-1.49 3.553c0 2.768 2.28 5.032 5.066 5.032h6.013c1.391 0 2.661.567 3.576 1.48a5 5 0 0 1 1.49 3.553c0 2.768-2.28 5.032-5.066 5.032h-13.824C141.779 149.256 125.642 155 108.154 155c-37.35 0-68.543-26.186-75.99-61.084 9.558-1.453 19.697-2.62 30.281-3.472l.797.72.75-.841c12.715-.983 26.063-1.507 39.829-1.507 29.248 0 56.618 2.362 80.019 6.469a76 76 0 0 1-4.772 14.087h15.867c1.395 0 2.658.567 3.577 1.48a5 5 0 0 1 1.489 3.553" fill="#E8EBF2"/>
  </g>
  <path fill-rule="evenodd" clip-rule="evenodd" d="M185.234 82.941a80.6 80.6 0 0 1-1.795 12.273c-23.376-4.212-50.717-6.633-79.933-6.633-13.75 0-27.083.536-39.785 1.544l8.808-10.167 13.703 8.908 18.55-5.102 31.91 4.817 13.854-4.817 3.508 4.817 8.371-6.19 7.823 7.142 12.337-9.82z" fill="#E0E2EE"/>
  <path fill-rule="evenodd" clip-rule="evenodd" d="m63.72 90.048-.718.738-.764-.632q.739-.058 1.482-.106" fill="#F1F2F7"/>
  <path fill-rule="evenodd" clip-rule="evenodd" d="M62.238 90.238c-10.583.859-20.721 2.036-30.278 3.5a76 76 0 0 1-.84-4.674L47.5 76.762z" fill="#E0E2EE"/>
  <path fill-rule="evenodd" clip-rule="evenodd" d="M183.753 139.5c-2.853 0-5.187-2.325-5.187-5.166s2.334-5.167 5.187-5.167 5.186 2.325 5.186 5.167-2.333 5.166-5.186 5.166" fill="#E1E3EF"/>
  <path fill-rule="evenodd" clip-rule="evenodd" d="M134.851 120.664c0 1.427-12.937 2.584-28.896 2.584s-28.896-1.157-28.896-2.584c0-1.426 12.937-2.583 28.896-2.583s28.896 1.157 28.896 2.583" fill="#D8DBEA"/>
  <path d="M136.65 58.025H79.617c-.77 0-1.508.264-2.052.733s-.85 1.104-.85 1.767v45.078c0 .662.306 1.298.85 1.767s1.282.732 2.052.732h57.033c.769 0 1.507-.264 2.051-.732.544-.469.85-1.105.851-1.767V60.525c-.001-.663-.307-1.298-.851-1.767s-1.282-.732-2.051-.733" fill="#BEC0D6"/>
  <rect x="83" y="39.119" width="50.269" height="61.205" rx="4" fill="#fff"/>
  <path fill-rule="evenodd" clip-rule="evenodd" d="M117.086 62.738a2.22 2.22 0 0 0 2.205-2.232 2.22 2.22 0 0 0-2.24-2.196 2.22 2.22 0 0 0-2.205 2.231 2.22 2.22 0 0 0 2.24 2.197m-7.426-2.232a2.22 2.22 0 0 1-2.206 2.232 2.22 2.22 0 0 1-2.24-2.196 2.22 2.22 0 0 1 2.205-2.232 2.22 2.22 0 0 1 2.241 2.196m-9.632 0a2.22 2.22 0 0 1-2.205 2.232 2.22 2.22 0 0 1-2.24-2.196 2.22 2.22 0 0 1 2.204-2.232 2.22 2.22 0 0 1 2.241 2.196" fill="#BEC0D6"/>
  <path d="m143.711 81.837-4.017 23.904a2.88 2.88 0 0 1-2.854 2.469h-57.4a2.88 2.88 0 0 1-2.853-2.469l-5.43-33.855a2.875 2.875 0 0 1 2.854-3.273h17.726a2.88 2.88 0 0 1 2.854 2.47l.712 5.013a2.88 2.88 0 0 0 2.853 2.469h42.702a2.874 2.874 0 0 1 2.853 3.272" fill="#D8DBEA"/>
  <path d="M127.066 83.504c2.311-3.989 8.07-3.989 10.382 0l13.009 22.445c2.318 4-.568 9.009-5.192 9.009h-26.017c-4.623 0-7.509-5.009-5.191-9.009z" fill="url(#b)"/>
  <path d="M130.445 107.72a2.214 2.214 0 0 1 2.22-2.211 2.23 2.23 0 0 1 1.57.647 2.22 2.22 0 0 1 .65 1.564c0 .587-.234 1.149-.65 1.564a2.223 2.223 0 0 1-3.79-1.564m.218-13.28a2 2 0 0 1 .505-1.549 2 2 0 0 1 1.493-.663 2.01 2.01 0 0 1 1.911 1.384c.087.267.116.549.087.828l-.777 7.756a1.223 1.223 0 0 1-1.221 1.096 1.23 1.23 0 0 1-1.221-1.096z" fill="#fff"/>
  <defs>
    <linearGradient id="b" x1="132.257" y1="47.606" x2="78.376" y2="101.694" gradientUnits="userSpaceOnUse">
      <stop stop-color="#FF8960"/>
      <stop offset="1" stop-color="#FF62A5"/>
    </linearGradient>
  </defs>
</svg>
