<svg width="201" height="183" viewBox="0 0 201 183" fill="none" xmlns="http://www.w3.org/2000/svg">
  <path fill-rule="evenodd" clip-rule="evenodd" d="M108.277 27c-18.289 0-35.098 6.334-48.371 16.932H38.455c-2.787 0-5.068 2.285-5.068 5.079s2.28 5.08 5.068 5.08H52.57c2.787 0 5.067 2.285 5.067 5.079a5.06 5.06 0 0 1-1.49 3.586 5.04 5.04 0 0 1-3.577 1.493H23.59c-2.787 0-5.068 2.286-5.068 5.08s2.28 5.08 5.068 5.08h13.162c-3.973 9.36-6.174 19.659-6.174 30.476 0 3.924.29 7.781.848 11.55q.35 2.363.841 4.68c9.56-1.466 19.701-2.644 30.289-3.505l.797.729.75-.85c12.719-.993 26.07-1.521 39.838-1.521 29.255 0 56.632 2.384 80.039 6.529a78 78 0 0 0 1.797-12.079 77 77 0 0 0 .196-5.533c0-43.016-34.785-77.885-77.697-77.885M8.204 64.015H5.133C2.31 64.015 0 66.347 0 69.197s2.31 5.182 5.133 5.182h3.07c2.824 0 5.134-2.332 5.134-5.182s-2.31-5.182-5.133-5.182" fill="#F1F2F7"/>
  <mask id="a" style="mask-type:luminance" maskUnits="userSpaceOnUse" x="32" y="116" width="169" height="67">
    <path fill-rule="evenodd" clip-rule="evenodd" d="M200.001 116.08v66.38H32.164v-66.38z" fill="#fff"/>
  </mask>
  <g mask="url(#a)">
    <path fill-rule="evenodd" clip-rule="evenodd" d="M200.001 141.744c0 2.777-2.28 5.048-5.066 5.048h-32.359a5.05 5.05 0 0 0-3.576 1.484 5.02 5.02 0 0 0-1.49 3.563c0 2.776 2.28 5.048 5.066 5.048h6.012a5.05 5.05 0 0 1 3.577 1.484 5 5 0 0 1 1.489 3.563c0 2.776-2.279 5.047-5.066 5.047h-13.823c-12.986 9.718-29.123 15.479-46.611 15.479-37.35 0-68.543-26.263-75.99-61.265 9.558-1.457 19.697-2.628 30.281-3.483l.797.724.75-.845c12.715-.986 26.063-1.511 39.829-1.511 29.248 0 56.618 2.369 80.019 6.488a76.4 76.4 0 0 1-4.772 14.129h15.867c1.395 0 2.658.569 3.577 1.484a5.02 5.02 0 0 1 1.489 3.563" fill="#E8EBF2"/>
  </g>
  <path fill-rule="evenodd" clip-rule="evenodd" d="M185.232 110.188a81 81 0 0 1-1.795 12.309c-23.376-4.224-50.717-6.653-79.933-6.653-13.75 0-27.083.538-39.785 1.549l8.808-10.197 13.703 8.934 18.55-5.117 31.91 4.831 13.854-4.831 3.508 4.831 8.371-6.208 7.823 7.164 12.337-9.849z" fill="#E0E2EE"/>
  <path fill-rule="evenodd" clip-rule="evenodd" d="m63.72 117.315-.718.741-.764-.634q.739-.058 1.482-.107" fill="#F1F2F7"/>
  <path fill-rule="evenodd" clip-rule="evenodd" d="M62.238 117.506c-10.583.862-20.721 2.042-30.278 3.511a77 77 0 0 1-.84-4.688L47.5 103.99z" fill="#E0E2EE"/>
  <path fill-rule="evenodd" clip-rule="evenodd" d="M183.753 166.914c-2.853 0-5.187-2.332-5.187-5.182s2.334-5.182 5.187-5.182 5.186 2.332 5.186 5.182-2.333 5.182-5.186 5.182" fill="#E1E3EF"/>
  <path fill-rule="evenodd" clip-rule="evenodd" d="M139.725 146.804c0 1.431-12.606 2.591-28.156 2.591s-28.155-1.16-28.155-2.591 12.605-2.591 28.155-2.591 28.156 1.16 28.156 2.591" fill="#D8DBEA"/>
  <path fill="#fff" d="m132.334 81.083 6.86 1.837-10.109 37.692-6.86-1.837z"/>
  <path d="M135.512 24.212a6 6 0 0 1 4.55-.601l21.889 5.848a6 6 0 0 1 3.646 2.792l11.336 19.594a6 6 0 0 1 .603 4.556l-5.851 21.863a6 6 0 0 1-2.795 3.643l-19.616 11.33a6 6 0 0 1-4.55.6l-21.889-5.847a6 6 0 0 1-3.646-2.793l-11.336-19.593a6 6 0 0 1-.603-4.556l5.851-21.863a6 6 0 0 1 2.795-3.644z" fill="#D8DBEA"/>
  <path d="M136.265 29.877a6 6 0 0 1 4.55-.6l17.662 4.718a6 6 0 0 1 3.646 2.793l9.147 15.809a6 6 0 0 1 .602 4.556l-4.721 17.64a6 6 0 0 1-2.794 3.643l-15.829 9.142a6 6 0 0 1-4.549.601l-17.663-4.719a6 6 0 0 1-3.646-2.792l-9.146-15.81a6 6 0 0 1-.603-4.555l4.721-17.64a6 6 0 0 1 2.794-3.644z" fill="#E8EBF2"/>
  <path d="M137.338 75.686a2.66 2.66 0 1 0 1.378-5.14 2.66 2.66 0 1 0-1.378 5.14m9.303-34.693h-.001a2.663 2.663 0 0 0-3.261 1.881l-5.322 19.846a2.662 2.662 0 0 0 5.144 1.377l5.323-19.846a2.66 2.66 0 0 0-1.883-3.258" fill="#BEC0D6"/>
  <mask id="b" style="mask-type:alpha" maskUnits="userSpaceOnUse" x="73" y="94" width="30" height="39">
    <path d="M76.072 98.723c.415-4.637 6.389-6.236 9.07-2.428l16.14 22.932c2.001 2.842.563 6.807-2.794 7.706l-18.643 4.991c-3.357.898-6.586-1.817-6.276-5.278z" fill="#F1F2F7"/>
  </mask>
  <g mask="url(#b)">
    <path d="m77.289 85.14 28.114 39.942-32.473 8.693z" fill="#fff"/>
    <path fill-rule="evenodd" clip-rule="evenodd" d="M71.43 92.833a2 2 0 0 0-1.479 1.809l-.208 3.4a2 2 0 0 0 2.515 2.055l16.728-4.478a2 2 0 0 0 1.092-3.118l-2.06-2.794a2 2 0 0 0-2.127-.746zm4.087 15.239a2 2 0 0 0-1.478 1.809l-.208 3.401a2 2 0 0 0 2.515 2.054l16.728-4.478a2 2 0 0 0 1.092-3.118l-2.06-2.794a2 2 0 0 0-2.127-.745zm-.246 21.843c-1.434.384-2.773-.873-2.478-2.328l.715-3.537a2 2 0 0 1 1.443-1.535l23.201-6.211a2 2 0 0 1 1.928.513l2.653 2.635c1.094 1.087.598 2.951-.892 3.35z" fill="url(#c)"/>
  </g>
  <path d="m107.952 119.854-39.28 10.516a2 2 0 0 0-1.414 2.448l.29 1.084a2 2 0 0 0 2.45 1.414L109.28 124.8a1.997 1.997 0 0 0 1.413-2.449l-.29-1.083a2 2 0 0 0-2.45-1.414" fill="#BEC0D6"/>
  <defs>
    <linearGradient id="c" x1="74.252" y1="73.021" x2="47.183" y2="112.501" gradientUnits="userSpaceOnUse">
      <stop stop-color="#FF8960"/>
      <stop offset="1" stop-color="#FF62A5"/>
    </linearGradient>
  </defs>
</svg>
