<svg width="16" height="16" viewBox="0 0 16 16" fill="none" xmlns="http://www.w3.org/2000/svg">
  <g clip-path="url(#a)">
    <path fill-rule="evenodd" clip-rule="evenodd" d="M6.5 1h3a.5.5 0 0 1 .5.5V2H6v-.5a.5.5 0 0 1 .5-.5M5 2v-.5A1.5 1.5 0 0 1 6.5 0h3A1.5 1.5 0 0 1 11 1.5V2h3.4A1.64 1.64 0 0 1 16 3.671V6.36a1.23 1.23 0 0 1-1.2 1.255l-5.793.707h-.001v-.446a.5.5 0 0 0-.5-.5H7.5a.5.5 0 0 0-.5.5v.421l-5.8-.682A1.23 1.23 0 0 1 0 6.36V3.672a1.64 1.64 0 0 1 1.6-1.673zm8.332 13.996H2.742a2.1 2.1 0 0 1-1.496-.505 2.07 2.07 0 0 1-.708-1.405V8.687q.269.075.548.084L7 9.466v1.039a.5.5 0 0 0 .502.5h1.003a.504.504 0 0 0 .503-.5V9.487l5.984-.716a2.4 2.4 0 0 0 .546-.084v5.399a2.07 2.07 0 0 1-.71 1.405 2.1 2.1 0 0 1-1.496.505" fill="#fff"/>
  </g>
  <defs>
    <clipPath id="a">
      <path fill="#fff" d="M0 0h16v16H0z"/>
    </clipPath>
  </defs>
</svg>
