<svg width="16" height="16" viewBox="0 0 16 16" fill="none" xmlns="http://www.w3.org/2000/svg">
  <g clip-path="url(#a)">
    <path d="M13.907 15H2.101A2.136 2.136 0 0 1 0 12.835v-3.8h5.46a.21.21 0 0 1 .167.13l.5 1.099q.036.07.087.129a.5.5 0 0 0 .371.162h2.761a.49.49 0 0 0 .458-.291l.5-1.1a.19.19 0 0 1 .167-.129H16v3.8A2.135 2.135 0 0 1 13.907 15M9.034 9.557H6.91l-.372-.81a1.2 1.2 0 0 0-1.075-.716H.055l1.601-5.488A2.12 2.12 0 0 1 3.667.999h8.68a2.1 2.1 0 0 1 2.015 1.544l1.594 5.488h-5.482a1.19 1.19 0 0 0-1.069.716l-.367.809z" fill="#fff"/>
  </g>
  <defs>
    <clipPath id="a">
      <path fill="#fff" d="M0 0h16v16H0z"/>
    </clipPath>
  </defs>
</svg>
