<svg width="17" height="16" viewBox="0 0 17 16" fill="none" xmlns="http://www.w3.org/2000/svg">
  <g clip-path="url(#clip0_12_8096)">
    <path d="M10.8503 16H5.7083C5.58899 15.9815 5.48025 15.9209 5.4017 15.8292C5.32316 15.7375 5.27999 15.6207 5.27999 15.5C5.27999 15.3793 5.32316 15.2625 5.4017 15.1708C5.48025 15.0791 5.58899 15.0185 5.7083 15H6.4463L6.7793 13H2.2793C1.74886 13 1.24016 12.7893 0.865083 12.4142C0.490011 12.0391 0.279297 11.5304 0.279297 11V10H16.2793V11C16.2793 11.5304 16.0686 12.0391 15.6935 12.4142C15.3184 12.7893 14.8097 13 14.2793 13H9.7793L10.1123 15H10.8503C10.9696 15.0185 11.0783 15.0791 11.1569 15.1708C11.2354 15.2625 11.2786 15.3793 11.2786 15.5C11.2786 15.6207 11.2354 15.7375 11.1569 15.8292C11.0783 15.9209 10.9696 15.9815 10.8503 16ZM16.2793 9H0.279297V2C0.279297 1.46957 0.490011 0.960859 0.865083 0.585786C1.24016 0.210714 1.74886 0 2.2793 0H14.2793C14.8097 0 15.3184 0.210714 15.6935 0.585786C16.0686 0.960859 16.2793 1.46957 16.2793 2V9Z" fill="#9CA5B1"/>
  </g>
  <defs>
    <clipPath id="clip0_12_8096">
      <rect width="16" height="16" fill="white" transform="translate(0.279541)"/>
    </clipPath>
  </defs>
</svg>
