<svg width="17" height="16" viewBox="0 0 17 16" fill="none" xmlns="http://www.w3.org/2000/svg">
  <g clip-path="url(#clip0_12_8093)">
    <path fill-rule="evenodd" clip-rule="evenodd" d="M2.27954 0C1.17497 0 0.279541 0.895431 0.279541 2V14C0.279541 15.1046 1.17497 16 2.27954 16H14.2795C15.3841 16 16.2795 15.1046 16.2795 14V2C16.2795 0.895431 15.3841 0 14.2795 0H2.27954ZM7.77954 4C7.5034 4 7.27954 4.22386 7.27954 4.5V12.5C7.27954 12.7761 7.5034 13 7.77954 13H8.77954C9.05568 13 9.27954 12.7761 9.27954 12.5V4.5C9.27954 4.22386 9.05568 4 8.77954 4H7.77954ZM3.77954 7C3.5034 7 3.27954 7.22386 3.27954 7.5V12.5C3.27954 12.7761 3.5034 13 3.77954 13H4.77954C5.05568 13 5.27954 12.7761 5.27954 12.5V7.5C5.27954 7.22386 5.05568 7 4.77954 7H3.77954ZM11.2795 10.5C11.2795 10.2239 11.5034 10 11.7795 10H12.7795C13.0557 10 13.2795 10.2239 13.2795 10.5V12.5C13.2795 12.7761 13.0557 13 12.7795 13H11.7795C11.5034 13 11.2795 12.7761 11.2795 12.5V10.5Z" fill="#9CA5B1"/>
  </g>
  <defs>
    <clipPath id="clip0_12_8093">
      <rect width="16" height="16" fill="white" transform="translate(0.279541)"/>
    </clipPath>
  </defs>
</svg>
