<svg width="17" height="16" viewBox="0 0 17 16" fill="none" xmlns="http://www.w3.org/2000/svg">
  <g clip-path="url(#clip0_12_8094)">
    <path fill-rule="evenodd" clip-rule="evenodd" d="M6.77966 0.999686H9.77966C10.0558 0.999686 10.2797 1.22347 10.2797 1.49953V1.99937H6.27966V1.49953C6.27966 1.22347 6.50352 0.999686 6.77966 0.999686ZM5.27966 1.99937V1.49953C5.27966 0.671362 5.95124 0 6.77966 0H9.77966C10.6081 0 11.2797 0.671362 11.2797 1.49953V1.99937H14.6797C15.1134 2.00986 15.5253 2.19176 15.8252 2.50523C16.1251 2.81869 16.2885 3.23819 16.2797 3.67185V6.36C16.2866 6.68536 16.1642 7.0002 15.9392 7.23542C15.7142 7.47063 15.4051 7.607 15.0797 7.61461L9.28648 8.32239H9.28548V7.87553C9.28548 7.74296 9.23281 7.61582 9.13904 7.52208C9.04527 7.42835 8.91809 7.37568 8.78548 7.37568H7.77966C7.64705 7.37568 7.51988 7.42835 7.42611 7.52208C7.33234 7.61582 7.27966 7.74296 7.27966 7.87553V8.29739L1.47966 7.61461C1.1543 7.60674 0.845316 7.47029 0.620395 7.23513C0.395474 6.99997 0.272949 6.68529 0.27966 6.36V3.67185C0.270537 3.23811 0.433854 2.81847 0.733795 2.50494C1.03374 2.19141 1.44582 2.0096 1.87966 1.99937H5.27966ZM13.6117 15.996H3.02271C2.47648 16.0299 1.93881 15.8484 1.52612 15.4908C1.11342 15.1333 0.85891 14.6284 0.817688 14.0856V8.68727C0.996361 8.73637 1.18018 8.76455 1.36543 8.77125L7.27966 9.46603L7.27966 10.5045C7.27966 10.6371 7.33261 10.7642 7.42685 10.858C7.52109 10.9517 7.6489 11.0044 7.78218 11.0044H8.78496C8.91824 11.0044 9.04605 10.9517 9.14029 10.858C9.23453 10.7642 9.28748 10.6371 9.28748 10.5045L9.28748 9.48702L15.272 8.77125C15.4565 8.76434 15.6397 8.73616 15.8177 8.68727V14.0856C15.7762 14.6285 15.5215 15.1334 15.1086 15.4909C14.6958 15.8484 14.158 16.0299 13.6117 15.996Z" fill="#9CA5B1"/>
  </g>
  <defs>
    <clipPath id="clip0_12_8094">
      <rect width="16" height="16" fill="white" transform="translate(0.279541)"/>
    </clipPath>
  </defs>
</svg>
