<svg width="17" height="16" viewBox="0 0 17 16" fill="none" xmlns="http://www.w3.org/2000/svg">
  <g clip-path="url(#clip0_12_8095)">
    <path d="M14.1866 15H2.38035C1.81462 14.9911 1.27555 14.7575 0.881611 14.3516C0.487674 13.9456 0.271481 13.4004 0.279771 12.835V9.03516H5.7403C5.77706 9.04001 5.81158 9.05449 5.84093 9.07715C5.87027 9.09981 5.89338 9.12974 5.90737 9.16406L6.4076 10.2637C6.43144 10.3099 6.46057 10.3531 6.49455 10.3926C6.54146 10.4443 6.59862 10.4857 6.6626 10.5137C6.72657 10.5416 6.79601 10.5554 6.86582 10.5547H9.62686C9.69654 10.5556 9.76623 10.5416 9.83007 10.5137C9.89392 10.4857 9.95055 10.4444 9.99714 10.3926C10.0313 10.3533 10.0605 10.3101 10.0841 10.2637L10.5843 9.16406C10.5964 9.12853 10.6191 9.09716 10.6488 9.07422C10.6785 9.05128 10.7139 9.03787 10.7514 9.03516H16.2793V12.835C16.2871 13.3989 16.0716 13.943 15.6795 14.3486C15.2873 14.7542 14.7507 14.9884 14.1866 15ZM9.31323 9.55664H7.18921L6.81794 8.74707C6.72564 8.53764 6.57568 8.35928 6.38513 8.23242C6.19457 8.10556 5.97116 8.03567 5.74225 8.03125H0.334484L1.93581 2.54297C2.05961 2.10328 2.3218 1.71575 2.6842 1.4375C3.0466 1.15925 3.48956 1.00523 3.9465 0.999023H12.6263C13.0847 1.00144 13.5297 1.15385 13.8935 1.43262C14.2573 1.71138 14.5205 2.10114 14.6419 2.54297L16.2354 8.03125H10.7534C10.5252 8.03583 10.304 8.10551 10.1144 8.23242C9.92482 8.35933 9.77556 8.53797 9.6845 8.74707L9.31714 9.55566L9.31323 9.55664Z" fill="#9CA5B1"/>
  </g>
  <defs>
    <clipPath id="clip0_12_8095">
      <rect width="16" height="16" fill="white" transform="translate(0.279541)"/>
    </clipPath>
  </defs>
</svg>
