<svg width="126" height="24" viewBox="0 0 126 24" fill="none" xmlns="http://www.w3.org/2000/svg">
  <path fill-rule="evenodd" clip-rule="evenodd" d="M11.3512 7.90923L17.0268 0.25H11.7674C11.6857 0.25 11.2695 0.557127 11.2021 0.669362L0 15.5685H5.25938C5.34565 15.5685 5.69527 15.3379 5.78078 15.2568L8.36204 11.8526H13.4701L4.99452 23.2277H10.2539C10.4378 23.2277 10.7662 22.8743 10.8949 22.7325C11.3131 22.2705 11.6918 21.7278 12.0725 21.1822C12.481 20.5966 12.8919 20.0077 13.3566 19.5118H21.9835L22.097 19.6256V23.2277H27.0158V7.90923H22.0213V0.25H17.1025V7.90923H11.3512ZM16.27 15.5685L22.097 7.98506V15.5685H16.27ZM118.582 23.0002V19.436H118.583C121.44 20.1693 124.527 19.7689 125.415 16.5376C125.852 14.9451 125.739 12.209 124.676 10.8645C123.087 8.85411 120.336 9.57833 118.28 10.3359L118.204 9.80507H116.16V23.0002H118.582ZM118.592 12.2037C118.655 12.0202 119.984 11.6759 120.23 11.6463H120.23C122.597 11.3597 123.236 12.9871 123.121 15.0748C123.004 17.1966 121.857 18.0581 119.775 17.8222C119.505 17.7919 118.634 17.6349 118.581 17.3505L118.592 12.2037ZM107.534 9.80507V16.1372C107.534 16.1873 107.668 16.6392 107.702 16.7272C108.289 18.2575 110.522 17.6114 111.696 17.2368V9.80507H114.193V19.5118H112.074L111.998 18.981C110.102 19.7188 107.257 20.4408 105.795 18.5624C105.552 18.2499 105.113 17.346 105.113 16.9714V9.80507H107.534ZM75.1449 19.5118V9.80507H72.6476V19.3981L72.7611 19.5118H75.1449ZM75.2206 5.63421H72.5719V7.90922H75.2206V5.63421ZM83.1888 18.5646L83.2477 18.5469L83.3177 18.526L83.317 18.5267V19.778C83.317 19.872 83.0983 20.3634 83.0287 20.4749C82.6041 21.1574 81.6786 21.2886 80.9363 21.3356C80.0336 21.393 79.0978 21.3142 78.184 21.2372C77.9509 21.2175 77.7193 21.198 77.49 21.1809V23.0768C77.7184 23.0915 77.9642 23.1105 78.223 23.1305C80.7564 23.3263 84.543 23.6191 85.5146 20.9185C85.6039 20.6698 85.8142 19.8546 85.8142 19.6263V9.80582H83.998C83.9926 9.83867 83.997 9.88101 84.0015 9.92374V9.9238V9.92386C84.0126 10.03 84.0239 10.1386 83.8853 10.1099C82.0767 9.27499 79.0883 9.26134 77.7534 10.9411C76.3171 12.7482 76.3171 16.8796 78.1779 18.4061C79.661 19.6219 81.5379 19.0593 83.1888 18.5646ZM79.3077 15.1514C79.0951 13.7052 79.3441 11.732 81.105 11.4931H81.1058C81.463 11.4446 81.9942 11.4476 82.3529 11.4931C82.5754 11.5212 83.2776 11.6675 83.3193 11.8897L83.3079 16.5823C83.2474 16.7628 81.9427 17.0631 81.69 17.0844C80.2264 17.2095 79.5204 16.5975 79.3077 15.1514ZM45.3291 19.5118H42.4535L41.4621 16.4861L36.1641 16.5232L35.0752 19.5118H32.4644L37.3424 6.31142C37.8012 6.35672 38.301 6.33255 38.799 6.30847C39.3179 6.28338 39.8348 6.25839 40.3013 6.31217C40.3138 6.31367 40.3261 6.31492 40.3382 6.31614C40.4302 6.32548 40.5074 6.3333 40.5555 6.43654L45.3298 19.5111L45.3291 19.5118ZM36.9292 14.3551H40.7129L38.8582 8.81848L36.9292 14.3551ZM64.1721 10.1842V5.63421H64.1713H61.7497V19.5118H64.1713V12.1938C65.1021 11.6456 67.1438 11.2126 67.9187 12.1544C68.0421 12.3038 68.3334 12.8642 68.3334 13.028V19.5118H70.8307C70.7858 18.5138 70.8125 17.4907 70.8392 16.4677C70.8687 15.3351 70.8983 14.2027 70.8307 13.1046C70.752 11.8238 70.4402 10.6438 69.2438 9.99314C67.7765 9.19593 66.0938 9.65769 64.5711 10.0756L64.5704 10.0758L64.5693 10.0761C64.4356 10.1128 64.3031 10.1491 64.1721 10.1842ZM98.0591 9.60033C101.454 9.297 103.76 10.4383 103.98 14.0867C104.162 17.0965 103.036 19.5194 99.78 19.7424C96.7984 19.9471 94.5842 19.0075 94.149 15.824C93.7374 12.8119 94.6674 9.90291 98.0591 9.60033ZM98.8938 11.4158C96.6115 11.4613 96.4911 13.5573 96.6334 15.3811C96.7878 17.3559 98.128 18.3629 100.062 17.7502C101.545 17.28 101.595 14.9163 101.396 13.6423C101.166 12.1734 100.438 11.3847 98.8938 11.4158ZM60.0856 11.6251V9.72924L60.0864 9.72848L59.9543 9.71532C57.3417 9.45475 54.2487 9.14627 53.035 12.0278C52.3819 13.5755 52.3774 15.8938 53.035 17.4385C54.3313 20.484 57.6345 19.9115 60.237 19.1319V17.3119C57.9281 17.9868 55.3355 18.3781 55.0881 15.2295C54.9186 13.075 55.5451 11.5166 57.9327 11.4704L60.0856 11.6251ZM93.6851 9.57757V11.7009C92.4925 11.619 91.3279 11.8647 90.2041 12.2318V19.5118H87.7825V9.80507H89.7879L89.94 10.4125C90.1652 10.3435 90.3912 10.2525 90.6171 10.1616L90.6172 10.1615C90.8529 10.0666 91.0884 9.97183 91.3226 9.90214C91.3453 9.89535 91.3724 9.88721 91.403 9.87801C91.7171 9.78352 92.4017 9.57757 92.5879 9.57757H93.6851ZM52.1398 11.7009V9.57757H51.0425C50.8563 9.57757 50.1717 9.78351 49.8576 9.87801C49.8271 9.8872 49.8 9.89535 49.7772 9.90214C49.5432 9.97194 49.3091 10.0663 49.0747 10.1607C48.8482 10.2519 48.6215 10.3432 48.3947 10.4125L48.2804 9.80507H46.2372V19.5118H48.6588V12.2318C49.7825 11.8647 50.9472 11.619 52.1398 11.7009Z" fill="#B40950"/>
</svg>
