<svg width="260" height="48" viewBox="0 0 260 48" fill="none" xmlns="http://www.w3.org/2000/svg">
  <path fill-rule="evenodd" clip-rule="evenodd" d="M23.4875 15.9845L35.2312 0H24.3487C24.1796 0 23.3184 0.640962 23.179 0.875189L0 31.9689H10.8825C11.061 31.9689 11.7845 31.4878 11.9614 31.3185L17.3025 24.2141H27.8718L10.3345 47.9534H21.217C21.5975 47.9534 22.2771 47.2159 22.5433 46.92C23.4088 45.9559 24.1923 44.8232 24.9799 43.6846C25.8254 42.4624 26.6756 41.2334 27.6369 40.1986H45.4874L45.7223 40.436V47.9534H55.9002V15.9845H45.5657V0H35.3878V15.9845H23.4875ZM33.6654 31.9689L45.7223 16.1427V31.9689H33.6654ZM245.366 47.4786V40.0403H245.368C251.279 41.5707 257.667 40.7351 259.504 33.9915C260.409 30.668 260.174 24.9579 257.976 22.1519C254.687 17.9564 248.996 19.4678 244.741 21.0489L244.583 19.941H240.355V47.4786H245.366ZM245.386 24.9468C245.518 24.5639 248.266 23.8453 248.776 23.7836H248.775C253.673 23.1854 254.996 26.5817 254.758 30.9387C254.517 35.3668 252.143 37.1647 247.835 36.6725C247.275 36.6092 245.474 36.2816 245.364 35.6881L245.386 24.9468ZM222.505 19.941V33.1559C222.505 33.2603 222.784 34.2036 222.852 34.3872C224.068 37.5809 228.688 36.2325 231.117 35.4507V19.941H236.284V40.1986H231.9L231.742 39.0907C227.819 40.6306 221.933 42.1373 218.908 38.2171C218.404 37.5651 217.496 35.6786 217.496 34.8968V19.941H222.505ZM155.487 40.1986V19.941H150.32V39.9612L150.555 40.1986H155.487ZM155.644 11.2366H150.163V15.9845H155.644V11.2366ZM172.132 38.2217L172.253 38.1849L172.398 38.1412L172.397 38.1427V40.7541C172.397 40.9503 171.944 41.9758 171.8 42.2085C170.922 43.6328 169.007 43.9066 167.471 44.0048C165.603 44.1246 163.666 43.96 161.776 43.7993C161.293 43.7583 160.814 43.7176 160.34 43.6819V47.6385C160.812 47.6691 161.321 47.7088 161.856 47.7505C167.098 48.1593 174.934 48.7702 176.944 43.1343C177.129 42.6152 177.564 40.9139 177.564 40.4375V19.9426H173.806C173.795 20.0111 173.804 20.0995 173.813 20.1887V20.1888V20.1889C173.836 20.4105 173.859 20.637 173.573 20.5772C169.83 18.8348 163.647 18.8063 160.885 22.3118C157.913 26.0832 157.913 34.7053 161.763 37.8911C164.832 40.4282 168.715 39.2543 172.132 38.2217ZM164.101 31.0985C163.661 28.0804 164.176 23.9624 167.82 23.4639H167.821C168.56 23.3626 169.66 23.369 170.402 23.4639C170.862 23.5225 172.315 23.8279 172.401 24.2916L172.378 34.0849C172.253 34.4616 169.553 35.0883 169.03 35.1326C166.002 35.3937 164.541 34.1165 164.101 31.0985ZM93.7934 40.1986H87.8432L85.792 33.8839L74.8296 33.9615L72.5764 40.1986H67.1743L77.2676 12.6499C78.217 12.7445 79.2512 12.694 80.2817 12.6438C81.3553 12.5914 82.4248 12.5392 83.39 12.6515C83.416 12.6546 83.4415 12.6572 83.4665 12.6598C83.6568 12.6793 83.8165 12.6956 83.9161 12.911L93.795 40.197L93.7934 40.1986ZM76.4127 29.4368H84.2418L80.404 17.8821L76.4127 29.4368ZM132.783 20.7323V11.2366H132.781H127.77V40.1986H132.781V24.9263C134.707 23.782 138.932 22.8784 140.535 24.844C140.79 25.1558 141.393 26.3253 141.393 26.6672V40.1986H146.56C146.468 38.1158 146.523 35.9806 146.578 33.8456C146.639 31.482 146.7 29.1187 146.56 26.827C146.398 24.154 145.752 21.6914 143.277 20.3335C140.241 18.6698 136.759 19.6334 133.608 20.5055L133.607 20.5059L133.605 20.5066C133.328 20.5831 133.054 20.659 132.783 20.7323ZM202.901 19.5137C209.925 18.8807 214.696 21.2625 215.152 28.8765C215.527 35.1579 213.199 40.2144 206.461 40.6797C200.292 41.107 195.71 39.1461 194.81 32.5023C193.958 26.2161 195.883 20.1452 202.901 19.5137ZM204.628 23.3025C199.905 23.3975 199.656 27.7719 199.951 31.5781C200.27 35.6992 203.043 37.8009 207.045 36.5222C210.114 35.5409 210.218 30.6079 209.806 27.9491C209.33 24.8836 207.824 23.2376 204.628 23.3025ZM124.327 23.7393V19.7828L124.329 19.7812L124.055 19.7537C118.65 19.2099 112.25 18.5661 109.738 24.5797C108.387 27.8098 108.378 32.6479 109.738 35.8717C112.421 42.2275 119.255 41.0326 124.64 39.4057V35.6074C119.863 37.0159 114.498 37.8326 113.986 31.2615C113.636 26.7653 114.932 23.513 119.872 23.4165L124.327 23.7393ZM193.85 19.4662V23.8976C191.382 23.7266 188.973 24.2394 186.647 25.0054V40.1986H181.637V19.941H185.786L186.101 21.2087C186.567 21.0647 187.034 20.8748 187.502 20.685L187.502 20.6849C187.99 20.4869 188.477 20.289 188.962 20.1436C189.009 20.1294 189.065 20.1124 189.128 20.0932C189.778 19.896 191.194 19.4662 191.58 19.4662H193.85ZM107.886 23.8976V19.4662H105.615C105.23 19.4662 103.814 19.896 103.164 20.0932C103.1 20.1124 103.044 20.1294 102.997 20.1436C102.513 20.2893 102.029 20.4861 101.544 20.6831C101.075 20.8735 100.606 21.064 100.137 21.2087L99.9002 19.941H95.6724V40.1986H100.683V25.0054C103.008 24.2394 105.418 23.7266 107.886 23.8976Z" fill="white"/>
</svg>
