<svg width="16" height="16" viewBox="0 0 16 16" fill="none" xmlns="http://www.w3.org/2000/svg">
  <g clip-path="url(#a)" fill="#9CA5B1">
    <path d="M12.667 14H3.333A1.3 1.3 0 0 1 2 12.737v-8.21a1.3 1.3 0 0 1 1.333-1.264H4v-.947A.326.326 0 0 1 4.334 2H5a.326.326 0 0 1 .334.316v.947h5.332v-.947A.326.326 0 0 1 11 2h.666a.326.326 0 0 1 .334.316v.947h.667A1.3 1.3 0 0 1 14 4.526v8.211A1.3 1.3 0 0 1 12.667 14M3.333 6.333v6.32h9.334v-6.32z"/>
    <path opacity=".6" d="M7 8H5v2h2z"/>
  </g>
  <defs>
    <clipPath id="a">
      <path fill="#fff" d="M0 0h16v16H0z"/>
    </clipPath>
  </defs>
</svg>
