<svg width="16" height="16" viewBox="0 0 16 16" fill="none" xmlns="http://www.w3.org/2000/svg">
  <g clip-path="url(#a)">
    <path fill-rule="evenodd" clip-rule="evenodd" d="M5.123 5.994a.64.64 0 0 0 .437-.178l2.439-2.357 2.434 2.363a.637.637 0 0 0 .883 0 .59.59 0 0 0 0-.856L8.441 2.178a.637.637 0 0 0-.883 0L4.683 4.966a.59.59 0 0 0 0 .856.64.64 0 0 0 .44.172m0 4.01c.163.002.32.066.437.18L8 12.54l2.434-2.363a.64.64 0 0 1 .883 0 .59.59 0 0 1 0 .856l-2.876 2.788a.64.64 0 0 1-.883 0l-2.875-2.788a.59.59 0 0 1 0-.856.64.64 0 0 1 .44-.172" fill="#9CA5B1"/>
  </g>
  <defs>
    <clipPath id="a">
      <path fill="#fff" d="M0 0h16v16H0z"/>
    </clipPath>
  </defs>
</svg>
