<svg width="16" height="16" viewBox="0 0 16 16" fill="none" xmlns="http://www.w3.org/2000/svg">
  <g clip-path="url(#a)" fill-rule="evenodd" clip-rule="evenodd" fill="#9CA5B1">
    <path d="M6 1a1 1 0 0 0-1 1H4a2 2 0 0 0-2 2v8a2 2 0 0 0 2 2h8a2 2 0 0 0 2-2V4a2 2 0 0 0-2-2h-1a1 1 0 0 0-1-1zm-.866 2.5A1 1 0 0 0 6 4h4a1 1 0 0 0 .866-.5H12a.5.5 0 0 1 .5.5v8a.5.5 0 0 1-.5.5H4a.5.5 0 0 1-.5-.5V4a.5.5 0 0 1 .5-.5z"/>
    <path opacity=".6" d="M6 6a.75.75 0 0 0 0 1.5h4A.75.75 0 0 0 10 6zm0 3a.75.75 0 0 0 0 1.5h4A.75.75 0 0 0 10 9z"/>
  </g>
  <defs>
    <clipPath id="a">
      <path fill="#fff" d="M0 0h16v16H0z"/>
    </clipPath>
  </defs>
</svg>
