<svg width="16" height="16" viewBox="0 0 16 16" fill="none" xmlns="http://www.w3.org/2000/svg">
  <g clip-path="url(#a)">
    <path fill-rule="evenodd" clip-rule="evenodd" d="M9.024 1h.023a3.556 3.556 0 0 1 3.447 3.65v4.753A4.93 4.93 0 0 1 7.778 14.5l-.031.002-.031-.002A4.92 4.92 0 0 1 3 9.403V3.917a.75.75 0 1 1 1.499 0v5.529a3.43 3.43 0 0 0 3.248 3.553 3.424 3.424 0 0 0 3.248-3.553V4.618A2.06 2.06 0 0 0 9.025 2.5a2.057 2.057 0 0 0-1.972 2.116v.974l.001.034v3.852a.694.694 0 1 0 1.387 0V5.603a.75.75 0 1 1 1.5 0v3.874a2.195 2.195 0 0 1-2.193 2.194 2.19 2.19 0 0 1-2.193-2.194V4.649A3.56 3.56 0 0 1 9 1z" fill="#9CA5B1"/>
  </g>
  <defs>
    <clipPath id="a">
      <path fill="#fff" d="M0 0h16v16H0z"/>
    </clipPath>
  </defs>
</svg>
