<svg width="16" height="16" viewBox="0 0 16 16" fill="none" xmlns="http://www.w3.org/2000/svg">
  <g clip-path="url(#a)">
    <path opacity=".6" d="M8 14a6.002 6.002 0 0 1-5.885-7.17A6 6 0 0 1 14 8a6.01 6.01 0 0 1-6 6m0-4.94 1.967 1.968a.75.75 0 0 0 .533.223.76.76 0 0 0 .748-.749.75.75 0 0 0-.22-.535l-1.97-1.968 1.97-1.968a.75.75 0 0 0 .161-.82.7.7 0 0 0-.162-.24.73.73 0 0 0-.529-.221.74.74 0 0 0-.531.221L8 6.94 6.031 4.972a.755.755 0 0 0-1.047.013.753.753 0 0 0-.02 1.047L6.935 8l-1.97 1.968a.757.757 0 0 0 0 1.06.753.753 0 0 0 1.066 0z" fill="#9CA5B1"/>
  </g>
  <defs>
    <clipPath id="a">
      <path fill="#fff" d="M0 0h16v16H0z"/>
    </clipPath>
  </defs>
</svg>
