<svg width="16" height="16" viewBox="0 0 16 16" fill="none" xmlns="http://www.w3.org/2000/svg">
  <g clip-path="url(#a)" fill-rule="evenodd" clip-rule="evenodd" fill="#9CA5B1">
    <path opacity=".6" d="M8 8.707a.5.5 0 1 0 0-1 .5.5 0 0 0 0 1m2-.5a2 2 0 1 1-4 0 2 2 0 0 1 4 0"/>
    <path d="M13.253 12.393a1.5 1.5 0 0 1-1.785.642l-.764-.27-.057.033-.132.793a1.5 1.5 0 0 1-1.48 1.253H6.966a1.5 1.5 0 0 1-1.464-1.174l-.193-.867-.062-.036-.685.258a1.5 1.5 0 0 1-1.813-.632l-1.034-1.72a1.5 1.5 0 0 1 .31-1.912l.619-.53v-.11l-.62-.53a1.5 1.5 0 0 1-.31-1.91L2.75 3.955a1.5 1.5 0 0 1 1.786-.642l.728.257.097-.056.126-.758a1.5 1.5 0 0 1 1.48-1.253h2.069A1.5 1.5 0 0 1 10.5 2.677l.193.868.062.035.684-.257a1.5 1.5 0 0 1 1.814.632l1.035 1.724a1.5 1.5 0 0 1-.31 1.91l-.619.532v.109l.619.53a1.5 1.5 0 0 1 .31 1.912zm-1.459-3.527a3.7 3.7 0 0 0 0-1.379l1.207-1.035-1.035-1.724-1.379.518a8.6 8.6 0 0 0-1.207-.69l-.345-1.552H6.966l-.259 1.552a3.4 3.4 0 0 0-1.207.69l-1.465-.518-1.034 1.724 1.207 1.035a3.7 3.7 0 0 0 0 1.379L3.001 9.9l1.034 1.72 1.379-.517a8.6 8.6 0 0 0 1.207.689l.345 1.552h2.069l.259-1.552a5.5 5.5 0 0 0 1.207-.689l1.466.517 1.034-1.72z"/>
  </g>
  <defs>
    <clipPath id="a">
      <path fill="#fff" d="M0 0h16v16H0z"/>
    </clipPath>
  </defs>
</svg>
