<svg width="16" height="16" viewBox="0 0 16 16" fill="none" xmlns="http://www.w3.org/2000/svg">
  <g clip-path="url(#a)" fill-rule="evenodd" clip-rule="evenodd" fill="#9CA5B1">
    <path opacity=".6" d="M5 4H3a2 2 0 0 0-2 2v7a2 2 0 0 0 2 2h6a2 2 0 0 0 2-2v-1H9.5v1a.5.5 0 0 1-.5.5H3a.5.5 0 0 1-.5-.5V6a.5.5 0 0 1 .5-.5h2zm2.75 1a.75.75 0 0 1 .75-.75h3a.75.75 0 0 1 0 1.5h-3A.75.75 0 0 1 7.75 5m.75 2.25a.75.75 0 0 0 0 1.5h3a.75.75 0 0 0 0-1.5z"/>
    <path d="M13 2.5H7a.5.5 0 0 0-.5.5v7a.5.5 0 0 0 .5.5h6a.5.5 0 0 0 .5-.5V3a.5.5 0 0 0-.5-.5M7 1h6a2 2 0 0 1 2 2v7a2 2 0 0 1-2 2H7a2 2 0 0 1-2-2V3a2 2 0 0 1 2-2"/>
  </g>
  <defs>
    <clipPath id="a">
      <path fill="#fff" d="M0 0h16v16H0z"/>
    </clipPath>
  </defs>
</svg>
