<svg width="16" height="16" viewBox="0 0 16 16" fill="none" xmlns="http://www.w3.org/2000/svg">
  <g clip-path="url(#a)" fill="#9CA5B1">
    <path opacity=".6" fill-rule="evenodd" clip-rule="evenodd" d="M8.036 3.91a.75.75 0 0 0-.925 1.18l3.262 2.558a.75.75 0 0 0 .925-1.181zM9.5 12.75a.75.75 0 0 0 0 1.5h4.031a.75.75 0 1 0 0-1.5z"/>
    <path d="M9.583 1.925a2.4 2.4 0 0 1 1.46.536l.945.742a2.065 2.065 0 0 1 .492 2.972l-5.64 7.2a1.75 1.75 0 0 1-1.368.67l-2.17.03a.75.75 0 0 1-.74-.58l-.49-2.12a1.75 1.75 0 0 1 .324-1.485l5.641-7.198a1.94 1.94 0 0 1 1.546-.767m-5.698 10.64 1.572-.02a.26.26 0 0 0 .2-.1l5.641-7.2c.306-.391-.1-.762-.237-.867l-.945-.737a.9.9 0 0 0-.533-.216.44.44 0 0 0-.366.193l-5.64 7.2a.26.26 0 0 0-.048.22z"/>
  </g>
  <defs>
    <clipPath id="a">
      <path fill="#fff" d="M0 0h16v16H0z"/>
    </clipPath>
  </defs>
</svg>
