<svg width="16" height="16" viewBox="0 0 16 16" fill="none" xmlns="http://www.w3.org/2000/svg">
  <path
    opacity=".6"
    fill-rule="evenodd"
    clip-rule="evenodd"
    d="M7 6.75A.75.75 0 0 1 7.75 6h2.5a.75.75 0 0 1 0 1.5h-2.5A.75.75 0 0 1 7 6.75m0 3A.75.75 0 0 1 7.75 9h2.5a.75.75 0 0 1 0 1.5h-2.5A.75.75 0 0 1 7 9.75"
    fill="#9ca5b1"
  />
  <path
    fill-rule="evenodd"
    clip-rule="evenodd"
    d="M4.646 3.646A.5.5 0 0 1 5 3.5h7a.5.5 0 0 1 .5.5v8a.5.5 0 0 1-.5.5H5a.5.5 0 0 1-.5-.5v-1.002H7a1 1 0 0 0 1-1v-4a1 1 0 0 0-1-1H4.5V4a.5.5 0 0 1 .146-.354M3 4.998V4a2 2 0 0 1 2-2h7a2 2 0 0 1 2 2v8a2 2 0 0 1-2 2H5a2 2 0 0 1-2-2v-1.002H2a1 1 0 0 1-1-1v-4a1 1 0 0 1 1-1zm.991 1.024H2.845l1.06 1.977-1.162 1.995h1.155l.607-1.25.612 1.25h1.141l-1.14-1.987 1.114-1.985H5.138l-.59 1.184z"
    fill="#9ca5b1"
  />
</svg>
