<svg width="16" height="16" viewBox="0 0 16 16" fill="none" xmlns="http://www.w3.org/2000/svg">
  <path fill-rule="evenodd" clip-rule="evenodd" d="M11.344 1.609a3.02 3.02 0 0 0-2.187.709l-.016.013-1.353 1.42-.007.007a.8.8 0 0 0 1.13 1.13l.011-.01 1.326-1.39a1.44 1.44 0 0 1 1.97.238l.024.03.03.024a1.437 1.437 0 0 1 .236 1.973l-2.79 2.792a1.44 1.44 0 0 1-1.974-.236l-.019-.022-.022-.02A.8.8 0 0 0 6.57 9.394a3.02 3.02 0 0 0 4.238.323l.012-.01 2.853-2.852.01-.012a3.02 3.02 0 0 0-.305-4.22 3.02 3.02 0 0 0-2.033-1.014m-3.96 3.96a3.02 3.02 0 0 0-2.188.709l-.012.01L2.33 9.142l-.01.012a3.02 3.02 0 0 0 .303 4.225 3.02 3.02 0 0 0 4.22.304l.007-.005 1.502-1.381.005-.006a.801.801 0 0 0-1.123-1.144L5.764 12.5a1.44 1.44 0 0 1-1.98-.231l-.025-.03-.03-.025a1.437 1.437 0 0 1-.236-1.973L6.285 7.45a1.44 1.44 0 0 1 1.974.236l.019.022.021.02a.8.8 0 0 0 1.134-1.127 3.02 3.02 0 0 0-2.05-1.032" fill="#9CA5B1"/>
</svg>
