<svg width="16" height="16" viewBox="0 0 16 16" fill="none" xmlns="http://www.w3.org/2000/svg">
  <g clip-path="url(#a)" fill-rule="evenodd" clip-rule="evenodd" fill="#9ca5b1">
    <path
      d="M10.582 10.576a.734.734 0 0 0 0 1.047c.292.29.767.29 1.06 0l3.138-3.099a.734.734 0 0 0 0-1.047l-3.138-3.1a.757.757 0 0 0-1.06 0 .734.734 0 0 0 0 1.047L12.46 7.28H6.002a.745.745 0 0 0-.75.741c0 .409.336.74.75.74h6.416z"
    />
    <path
      opacity=".6"
      d="M1.781 2.031a.75.75 0 0 0-.75.75v10.532c0 .414.336.75.75.75h6.532a.75.75 0 0 0 .75-.75v-1.847a.75.75 0 0 0-1.5 0v1.097H2.53V3.53h5.003v1.127a.75.75 0 0 0 1.5 0V2.78a.75.75 0 0 0-.75-.75z"
    />
  </g>
  <defs>
    <clipPath id="a">
      <path fill="#fff" d="M0 0h16v16H0z" />
    </clipPath>
  </defs>
</svg>
