<svg width="36" height="36" viewBox="0 0 36 36" fill="none" xmlns="http://www.w3.org/2000/svg">
  <g clip-path="url(#a)">
    <path d="M31 18c0 7.18-5.82 13-13 13S5 25.18 5 18 10.82 5 18 5s13 5.82 13 13" stroke="#366DD6" stroke-width="2" stroke-linecap="round" stroke-linejoin="round"/>
    <path d="M17.94 12.551a1.317 1.317 0 1 0 1.317-1.326 1.286 1.286 0 0 0-1.317 1.326m-2.928 4.6q-.024.39 0 .78l1.149-1.4c.238-.263.513-.448.654-.4a.3.3 0 0 1 .172.373l-1.9 6.375a1.283 1.283 0 0 0 1.2 1.644c1.478 0 2.357-1.012 3.22-2.324q.036-.4.02-.8l-1.148 1.4c-.238.264-.534.448-.674.4a.3.3 0 0 1-.18-.338l1.915-6.406a1.31 1.31 0 0 0-1.188-1.648c-.958.003-2.377 1.035-3.241 2.347z" fill="#366DD6"/>
  </g>
  <defs>
    <clipPath id="a">
      <path fill="#fff" d="M0 0h36v36H0z"/>
    </clipPath>
  </defs>
</svg>
