<svg width="36" height="36" viewBox="0 0 36 36" fill="none" xmlns="http://www.w3.org/2000/svg">
  <g clip-path="url(#a)">
    <path d="M31 18c0 7.18-5.82 13-13 13S5 25.18 5 18 10.82 5 18 5s13 5.82 13 13" stroke="#366DD6" stroke-width="2" stroke-linecap="round" stroke-linejoin="round"/>
    <path fill-rule="evenodd" clip-rule="evenodd" d="M17.099 12.863a1.8 1.8 0 0 1 .725-.115h.087a1.81 1.81 0 0 1 1.873 1.844 2.72 2.72 0 0 1-1.046 1.872l-.015.01c-.569.456-1.093.894-1.424 1.488-.349.625-.424 1.304-.424 2.102a1 1 0 1 0 2 0c0-.702.076-.96.17-1.128.113-.201.323-.416.92-.893a4.72 4.72 0 0 0 1.817-3.351 3.81 3.81 0 0 0-3.899-3.944 3.77 3.77 0 0 0-3.913 3.96 1 1 0 1 0 1.997-.104 1.77 1.77 0 0 1 1.132-1.741m.777 9.917a1 1 0 1 0 0 2h.015a1 1 0 1 0 0-2z" fill="#366DD6"/>
  </g>
  <defs>
    <clipPath id="a">
      <path fill="#fff" d="M0 0h36v36H0z"/>
    </clipPath>
  </defs>
</svg>
