<svg width="16" height="16" viewBox="0 0 16 16" fill="none" xmlns="http://www.w3.org/2000/svg">
  <g clip-path="url(#a)" fill-rule="evenodd" clip-rule="evenodd" fill="#9CA5B1">
    <path opacity=".6" d="M6.75 6.498a.75.75 0 0 1 .75-.75H10a.75.75 0 0 1 0 1.5H7.5a.75.75 0 0 1-.75-.75m0 3a.75.75 0 0 1 .75-.75H10a.75.75 0 0 1 0 1.5H7.5a.75.75 0 0 1-.75-.75"/>
    <path d="M4.646 3.646A.5.5 0 0 1 5 3.5h7a.5.5 0 0 1 .5.5v8a.5.5 0 0 1-.5.5H5a.5.5 0 0 1-.5-.5v-1H7a1 1 0 0 0 1-1V6a1 1 0 0 0-1-1H4.5V4a.5.5 0 0 1 .146-.354M3 5V4a2 2 0 0 1 2-2h7a2 2 0 0 1 2 2v8a2 2 0 0 1-2 2H5a2 2 0 0 1-2-2v-1H2a1 1 0 0 1-1-1V6a1 1 0 0 1 1-1zm2.018 1.25H3.5v3.5h.657V8.518H4.9A1.15 1.15 0 0 0 6 7.329v-.02a1.02 1.02 0 0 0-.982-1.059m.291 1.171a.526.526 0 0 1-.505.545h-.646V6.802H4.8a.526.526 0 0 1 .505.545z"/>
  </g>
  <defs>
    <clipPath id="a">
      <path fill="#fff" d="M0 0h16v16H0z"/>
    </clipPath>
  </defs>
</svg>
