<svg width="16" height="16" viewBox="0 0 16 16" fill="none" xmlns="http://www.w3.org/2000/svg">
  <g clip-path="url(#a)" fill-rule="evenodd" clip-rule="evenodd" fill="#9ca5b1">
    <path
      d="M10.5 4v3h-5V4a.5.5 0 0 1 .5-.5h4a.5.5 0 0 1 .5.5M4 7V4a2 2 0 0 1 2-2h4a2 2 0 0 1 2 2v3a2 2 0 0 1 2 2v3a2 2 0 0 1-2 2H4a2 2 0 0 1-2-2V9a2 2 0 0 1 2-2m8 1.5H4a.5.5 0 0 0-.5.5v3a.5.5 0 0 0 .5.5h8a.5.5 0 0 0 .5-.5V9a.5.5 0 0 0-.5-.5"
    />
    <path opacity=".6" d="M8.75 10.2a.75.75 0 0 1 .75-.75h1a.75.75 0 0 1 0 1.5h-1a.75.75 0 0 1-.75-.75" />
  </g>
  <defs>
    <clipPath id="a">
      <path fill="#fff" d="M0 0h16v16H0z" />
    </clipPath>
  </defs>
</svg>
