<svg width="16" height="16" viewBox="0 0 16 16" fill="none" xmlns="http://www.w3.org/2000/svg">
  <g clip-path="url(#a)">
    <path fill-rule="evenodd" clip-rule="evenodd" d="M13.105 3.75a.75.75 0 0 0-1.5 0v.41A5.46 5.46 0 0 0 8.28 3a5.32 5.32 0 0 0-5.263 4.226.75.75 0 0 0 1.468.308A3.82 3.82 0 0 1 8.264 4.5h.003a3.97 3.97 0 0 1 2.588.985h-.98a.75.75 0 1 0 0 1.5h2.48a.75.75 0 0 0 .75-.75zm.275 5.655a.75.75 0 1 0-1.457-.356 3.826 3.826 0 0 1-3.756 2.918h-.003a3.97 3.97 0 0 1-2.583-.979h.969a.75.75 0 1 0 0-1.5H4.069a.75.75 0 0 0-.75.75v2.481a.75.75 0 1 0 1.5 0v-.415a5.47 5.47 0 0 0 3.334 1.163 5.33 5.33 0 0 0 5.227-4.062" fill="#9CA5B1"/>
  </g>
  <defs>
    <clipPath id="a">
      <path fill="#fff" d="M0 0h16v16H0z"/>
    </clipPath>
  </defs>
</svg>
