<svg width="16" height="16" viewBox="0 0 16 16" fill="none" xmlns="http://www.w3.org/2000/svg">
  <g clip-path="url(#a)" fill="#9ca5b1">
    <path opacity=".6" d="M9.5 2h-4a.5.5 0 0 0-.5.5v3a.5.5 0 0 0 .5.5h4a.5.5 0 0 0 .5-.5v-3a.5.5 0 0 0-.5-.5" />
    <path
      fill-rule="evenodd"
      clip-rule="evenodd"
      d="M10.304 2c.362-.001.711.136.976.383l2.307 2.14a1.27 1.27 0 0 1 .413.91V12.7a1.343 1.343 0 0 1-1.375 1.3h-9.25A1.343 1.343 0 0 1 2 12.7V3.3A1.343 1.343 0 0 1 3.375 2zm-.026 1.5L12.5 5.56v6.94H11V9a1 1 0 0 0-1-1H6a1 1 0 0 0-1 1v3.5H3.5v-9zm-3.778 9v-3h3v3z"
    />
  </g>
  <defs>
    <clipPath id="a">
      <path fill="#fff" d="M0 0h16v16H0z" />
    </clipPath>
  </defs>
</svg>
