<svg width="16" height="16" viewBox="0 0 16 16" fill="none" xmlns="http://www.w3.org/2000/svg">
  <g clip-path="url(#a)">
    <path
      fill-rule="evenodd"
      clip-rule="evenodd"
      d="M11.453 6.987c0 2.48-2.006 4.49-4.48 4.49a4.485 4.485 0 0 1-4.48-4.49c0-2.48 2.006-4.49 4.48-4.49s4.48 2.01 4.48 4.49m-1.086 4.928a5.94 5.94 0 0 1-3.394 1.06C3.674 12.974 1 10.293 1 6.986 1 3.681 3.674 1 6.973 1s5.973 2.68 5.973 5.987a5.97 5.97 0 0 1-1.465 3.928l3.3 3.307a.75.75 0 0 1 0 1.059.745.745 0 0 1-1.056 0z"
      fill="#9ca5b1"
    />
  </g>
  <defs>
    <clipPath id="a">
      <path fill="#fff" d="M0 0h16v16H0z" />
    </clipPath>
  </defs>
</svg>
