<svg width="16" height="17" viewBox="0 0 16 17" fill="none" xmlns="http://www.w3.org/2000/svg">
  <g clip-path="url(#a)" fill-rule="evenodd" clip-rule="evenodd" fill="#9CA5B1">
    <path d="M5.75 2.5a.75.75 0 0 1 .75-.75h3a.75.75 0 0 1 0 1.5h-3a.75.75 0 0 1-.75-.75M8 6.25a.75.75 0 0 1 .75.75v2.5a.75.75 0 0 1-1.5 0V7A.75.75 0 0 1 8 6.25"/>
    <path opacity=".6" d="M12.5 9.75a4.5 4.5 0 1 1-9 0 4.5 4.5 0 0 1 9 0m1.5 0a6 6 0 1 1-2.32-4.74l.79-.79a.75.75 0 1 1 1.06 1.06l-.79.79A5.97 5.97 0 0 1 14 9.75"/>
  </g>
  <defs>
    <clipPath id="a">
      <path fill="#fff" d="M0 .75h16v16H0z"/>
    </clipPath>
  </defs>
</svg>
