<svg width="18" height="18" viewBox="0 0 18 18" fill="none" xmlns="http://www.w3.org/2000/svg">
  <g clip-path="url(#clip0_26_3468)">
    <path
      d="M12 0H6C2.68629 0 0 2.68629 0 6V12C0 15.3137 2.68629 18 6 18H12C15.3137 18 18 15.3137 18 12V6C18 2.68629 15.3137 0 12 0Z"
      fill="#9ca5b1"
    />
    <path
      d="M6 0.5H12C15.0376 0.5 17.5 2.96243 17.5 6V12C17.5 15.0376 15.0376 17.5 12 17.5H6C2.96243 17.5 0.5 15.0376 0.5 12V6C0.5 2.96243 2.96243 0.5 6 0.5Z"
      stroke="#3C3C43"
      stroke-opacity="0.03"
    />
    <path
      fill-rule="evenodd"
      clip-rule="evenodd"
      d="M11 6C11 7.10457 10.1046 8 9 8C7.89543 8 7 7.10457 7 6C7 4.89543 7.89543 4 9 4C10.1046 4 11 4.89543 11 6ZM5 12.2608V12.9963L13 13V12.2645C13 11.3987 12.7271 10.5684 12.2415 9.95615C11.7558 9.34394 11.097 9 10.4102 9H7.58984C6.90348 9 6.24518 9.34343 5.75958 9.95485C5.27397 10.5663 5.00077 11.3956 5 12.2608Z"
      fill="white"
    />
  </g>
  <defs>
    <clipPath id="clip0_26_3468">
      <rect width="18" height="18" fill="white" />
    </clipPath>
  </defs>
</svg>
