<svg width="16" height="17" viewBox="0 0 16 17" fill="none" xmlns="http://www.w3.org/2000/svg">
  <g clip-path="url(#clip0_23_8524)">
    <path fill-rule="evenodd" clip-rule="evenodd" d="M1.75 2.75C1.33579 2.75 1 3.08579 1 3.5C1 3.91421 1.33579 4.25 1.75 4.25H14.25C14.6642 4.25 15 3.91421 15 3.5C15 3.08579 14.6642 2.75 14.25 2.75H1.75ZM12.5303 10.9697C12.8232 11.2626 12.8232 11.7374 12.5303 12.0303L11.8107 12.75H14.25C14.6642 12.75 15 13.0858 15 13.5C15 13.9142 14.6642 14.25 14.25 14.25H11.8107L12.5303 14.9697C12.8232 15.2626 12.8232 15.7374 12.5303 16.0303C12.2374 16.3232 11.7626 16.3232 11.4697 16.0303L9.46967 14.0303C9.39776 13.9584 9.34351 13.8755 9.30691 13.7871C9.27024 13.6987 9.25 13.6017 9.25 13.5C9.25 13.3983 9.27024 13.3013 9.30691 13.2129C9.34351 13.1245 9.39776 13.0416 9.46967 12.9697L11.4697 10.9697C11.7626 10.6768 12.2374 10.6768 12.5303 10.9697ZM1 13.5C1 13.0858 1.33579 12.75 1.75 12.75H6.5C6.91421 12.75 7.25 13.0858 7.25 13.5C7.25 13.9142 6.91421 14.25 6.5 14.25H1.75C1.33579 14.25 1 13.9142 1 13.5ZM1.75 7.75C1.33579 7.75 1 8.08579 1 8.5C1 8.91421 1.33579 9.25 1.75 9.25H14.25C14.6642 9.25 15 8.91421 15 8.5C15 8.08579 14.6642 7.75 14.25 7.75H1.75Z" fill="#20293A"/>
  </g>
  <defs>
    <clipPath id="clip0_23_8524">
      <rect width="16" height="16" fill="white" transform="translate(0 0.75)"/>
    </clipPath>
  </defs>
</svg>
